<?xml version="1.0" encoding="utf-8"?>
<svg xmlns="http://www.w3.org/2000/svg" viewBox="174.55 107.484 146.458 231.29">
  <rect x="101.209" y="61.716" width="141.054" height="226.279" style="fill: rgb(254, 254, 254); stroke-linecap: round; stroke-width: 2px; stroke: rgb(44, 42, 44); transform-origin: 171.293px 174.679px 0px;" transform="matrix(0.999985, 0.005404, -0.005404, 0.999985, 75.877665, 47.993562)" rx="4.174" ry="4.174"/>
  <path style="fill: rgb(216, 216, 216); stroke-width: 2px; stroke: rgb(220, 220, 220);" d="M 192.048 137.236 L 240.486 137.236"/>
  <rect x="22.962" y="49.126" width="32.467" height="16.238" style="stroke-width: 0px; stroke-linejoin: round; stroke-linecap: round; paint-order: fill; stroke-dashoffset: 361.51px; stroke: rgb(180, 179, 189); fill: rgb(220, 220, 220); transform-origin: 39.206px 139.843px 0px;" transform="matrix(0.999985, 0.005404, -0.005404, 0.999985, 168.27115, 135.665091)"/>
  <path style="fill: rgb(216, 216, 216); stroke-width: 2px; stroke: rgb(44, 42, 44);" d="M 259.48 275.607 L 303.337 275.607"/>
  <path style="fill: rgb(216, 216, 216); stroke-width: 2px; stroke: rgb(44, 42, 44);" d="M 191.944 158.325 L 305.228 158.325"/>
  <rect x="22.962" y="49.126" width="32.467" height="16.238" style="stroke-width: 0px; stroke-linejoin: round; stroke-linecap: round; paint-order: fill; stroke-dashoffset: 361.51px; stroke: rgb(180, 179, 189); fill: rgb(220, 220, 220); transform-origin: 39.206px 139.843px 0px;" transform="matrix(0.999985, 0.005404, -0.005404, 0.999985, 208.53203, 135.387183)"/>
  <rect x="22.962" y="49.126" width="32.467" height="16.238" style="stroke-width: 0px; stroke-linejoin: round; stroke-linecap: round; paint-order: fill; stroke-dashoffset: 361.51px; stroke: rgb(180, 179, 189); fill: rgb(220, 220, 220); transform-origin: 39.206px 139.843px 0px;" transform="matrix(0.999985, 0.005404, -0.005404, 0.999985, 248.797838, 135.716971)"/>
  <path style="fill: rgb(216, 216, 216); stroke-width: 2px; stroke: rgb(220, 220, 220);" d="M 191.857 213.687 L 223.862 213.687"/>
  <path style="fill: rgb(216, 216, 216); stroke-width: 2px; stroke: rgb(220, 220, 220);" d="M 232.078 213.413 L 264.083 213.413"/>
  <path style="fill: rgb(216, 216, 216); stroke-width: 2px; stroke: rgb(220, 220, 220);" d="M 272.384 213.968 L 304.389 213.968"/>
  <path style="fill: rgb(216, 216, 216); stroke-width: 2px; stroke: rgb(220, 220, 220);" d="M 191.528 227.524 L 223.533 227.524"/>
  <path style="fill: rgb(216, 216, 216); stroke-width: 2px; stroke: rgb(220, 220, 220);" d="M 192.299 242.514 L 224.304 242.514"/>
  <path style="fill: rgb(216, 216, 216); stroke-width: 2px; stroke: rgb(220, 220, 220);" d="M 231.608 228 L 263.613 228"/>
  <path style="fill: rgb(216, 216, 216); stroke-width: 2px; stroke: rgb(220, 220, 220);" d="M 271.828 227.849 L 303.833 227.849"/>
  <path style="fill: rgb(216, 216, 216); stroke-width: 2px; stroke: rgb(220, 220, 220);" d="M 231.876 242.405 L 263.881 242.405"/>
  <path style="fill: rgb(216, 216, 216); stroke-width: 2px; stroke: rgb(220, 220, 220);" d="M 271.496 242.282 L 303.501 242.282"/>
  <path style="fill: rgb(216, 216, 216); stroke-width: 2px; stroke: rgb(44, 42, 44);" d="M 259.99 292.817 L 303.847 292.817"/>
  <path style="fill: rgb(216, 216, 216); stroke-width: 2px; stroke: rgb(44, 42, 44);" d="M 260.325 310.25 L 304.182 310.25"/>
</svg>