<?xml version="1.0" encoding="utf-8"?>
<svg xmlns="http://www.w3.org/2000/svg" viewBox="117.592 58.332 147.686 232.408">
  <rect x="101.209" y="61.716" width="141.054" height="226.279" style="fill: rgb(254, 254, 254); stroke-linecap: round; stroke-width: 2px; transform-origin: 171.293px 174.679px 0px; stroke: rgb(99, 45, 108);" transform="matrix(0.999985, 0.005404, -0.005404, 0.999985, 19.302037, -0.017319)" rx="4.174" ry="4.174"/>
  <rect x="99.419" y="58.525" width="140.57" height="19.345" style="stroke-width: 0px; stroke-linejoin: round; stroke-linecap: round; paint-order: fill; stroke-dashoffset: 361.51px; stroke: rgb(62, 57, 88); fill: rgb(99, 45, 108); transform-origin: 169.748px 166.597px 0px;" transform="matrix(0.999985, 0.005404, -0.005404, 0.999985, 21.02819, 3.295683)" rx="4.167" ry="4.167"/>
  <path style="fill: rgb(216, 216, 216); stroke-width: 2px; stroke: rgb(99, 45, 108);" d="M 135.472 100.225 L 201.676 100.225"/>
  <rect x="80.755" y="58.525" width="114.182" height="19.345" style="stroke-width: 0px; stroke-linejoin: round; stroke-linecap: round; paint-order: fill; stroke-dashoffset: 361.51px; transform-origin: 137.882px 166.597px 0px; stroke: rgb(180, 179, 189); fill: rgb(220, 220, 220);" transform="matrix(0.999985, 0.005404, -0.005404, 0.999985, 53.808386, 63.476398)"/>
  <rect x="80.755" y="58.525" width="114.182" height="19.345" style="stroke-width: 0px; stroke-linejoin: round; stroke-linecap: round; paint-order: fill; stroke-dashoffset: 361.51px; stroke: rgb(180, 179, 189); fill: rgb(220, 220, 220); transform-origin: 137.882px 166.597px 0px;" transform="matrix(0.999985, 0.005404, -0.005404, 0.999985, 53.891084, 102.525792)"/>
  <rect x="80.755" y="58.525" width="114.182" height="19.345" style="stroke-width: 0px; stroke-linejoin: round; stroke-linecap: round; paint-order: fill; stroke-dashoffset: 361.51px; stroke: rgb(180, 179, 189); fill: rgb(248, 243, 243); transform-origin: 137.882px 166.597px 0px;" transform="matrix(0.999985, 0.005404, -0.005404, 0.999985, 53.779951, 120.599866)"/>
  <rect x="80.755" y="58.525" width="114.182" height="19.345" style="stroke-width: 0px; stroke-linejoin: round; stroke-linecap: round; paint-order: fill; stroke-dashoffset: 361.51px; stroke: rgb(180, 179, 189); fill: rgb(220, 220, 220); transform-origin: 137.882px 166.597px 0px;" transform="matrix(0.999985, 0.005404, -0.005404, 0.999985, 53.317014, 139.82208)"/>
  <rect x="80.755" y="58.525" width="114.182" height="19.345" style="stroke-width: 0px; stroke-linejoin: round; stroke-linecap: round; paint-order: fill; stroke-dashoffset: 361.51px; stroke: rgb(180, 179, 189); fill: rgb(248, 243, 243); transform-origin: 137.882px 166.597px 0px;" transform="matrix(0.999985, 0.005404, -0.005404, 0.999985, 53.613302, 158.044309)"/>
  <path style="fill: rgb(216, 216, 216); stroke-width: 2px; stroke: rgb(99, 45, 108);" d="M 196.241 251.891 L 248.093 251.891"/>
  <rect x="36.869" y="58.525" width="52.131" height="19.345" style="stroke-width: 0px; stroke-linejoin: round; stroke-linecap: round; paint-order: fill; stroke-dashoffset: 361.51px; stroke: rgb(180, 179, 189); transform-origin: 62.952px 166.597px 0px; fill: rgb(90, 174, 230);" transform="matrix(0.999985, 0.005404, -0.005404, 0.999985, 159.160684, 202.10075)"/>
  <rect x="12.886" y="19.371" width="18.22" height="6.403" style="stroke-width: 0px; stroke-linejoin: round; stroke-linecap: round; paint-order: fill; stroke-dashoffset: 361.51px; stroke: rgb(180, 179, 189); transform-origin: 22.001px 55.14px 0px; fill: rgb(248, 243, 243);" transform="matrix(0.005404, -0.999985, 0.999985, 0.005404, 232.693441, 115.651277)"/>
  <rect x="12.886" y="19.371" width="18.22" height="6.403" style="stroke-width: 0px; stroke-linejoin: round; stroke-linecap: round; paint-order: fill; stroke-dashoffset: 361.51px; stroke: rgb(180, 179, 189); fill: rgb(248, 243, 243); transform-origin: 22.001px 55.14px 0px;" transform="matrix(0.005404, -0.999985, 0.999985, 0.005404, 232.742722, 152.681248)"/>
  <rect x="12.886" y="19.371" width="18.22" height="6.403" style="stroke-width: 0px; stroke-linejoin: round; stroke-linecap: round; paint-order: fill; stroke-dashoffset: 361.51px; stroke: rgb(180, 179, 189); transform-origin: 22.001px 55.14px 0px; fill: rgb(254, 254, 254);" transform="matrix(0.005404, -0.999985, 0.999985, 0.005404, 232.724442, 171.051838)"/>
  <rect x="12.886" y="19.371" width="18.22" height="6.403" style="stroke-width: 0px; stroke-linejoin: round; stroke-linecap: round; paint-order: fill; stroke-dashoffset: 361.51px; stroke: rgb(180, 179, 189); fill: rgb(254, 254, 254); transform-origin: 22.001px 55.14px 0px;" transform="matrix(0.005404, -0.999985, 0.999985, 0.005404, 232.891343, 133.829304)"/>
</svg>