<?xml version="1.0" encoding="utf-8"?>
<svg xmlns="http://www.w3.org/2000/svg" viewBox="348.682 111.352 225.848 255.932">
  <rect x="387.275" y="144.662" width="158.933" height="208.564" style="stroke: rgb(0, 0, 0); stroke-width: 7px; fill: rgb(255, 255, 255);" rx="7.1" ry="7.1"/>
  <path style="fill: rgb(216, 216, 216); stroke: rgb(0, 0, 0); paint-order: fill; stroke-width: 9px;" d="M 413.237 173.95 L 413.237 265.807"/>
  <rect x="360.479" y="284.113" width="181.671" height="71.888" style="stroke: rgb(0, 0, 0);" rx="33.725" ry="33.725"/>
  <rect x="360.485" y="284.332" width="75.41" height="32.395" style="stroke: rgb(0, 0, 0);"/>
  <ellipse style="stroke: rgb(0, 0, 0);" cx="531.515" cy="340.629" rx="11.538" ry="12.647"/>
  <rect x="512.598" y="258.756" width="17.585" height="98.513" style="fill: rgb(255, 255, 255); stroke: rgb(255, 255, 255);" rx="7.766" ry="7.766"/>
  <rect x="521.421" y="339.926" width="8.754" height="18.194" style="stroke: rgb(255, 255, 255); fill: rgb(255, 255, 255);"/>
  <rect x="531.196" y="147.819" width="11.359" height="151.32" style="stroke: rgb(0, 0, 0);"/>
  <path style="fill: rgb(216, 216, 216); paint-order: fill; stroke-width: 7px; stroke: rgb(255, 255, 255);" d="M 553.424 122.302 L 553.424 214.159"/>
  <path style="fill: rgb(216, 216, 216); stroke: rgb(0, 0, 0); paint-order: fill; stroke-width: 9px;" d="M 431.854 195.19 L 431.854 266.191"/>
  <path style="fill: rgb(216, 216, 216); stroke: rgb(0, 0, 0); paint-order: fill; stroke-width: 9px;" d="M 451.76 212.637 L 451.76 266.332"/>
  <path style="fill: rgb(216, 216, 216); stroke: rgb(0, 0, 0); paint-order: fill; stroke-width: 9px;" d="M 471.791 228.109 L 471.791 266.273"/>
  <path style="fill: rgb(216, 216, 216); stroke: rgb(0, 0, 0); paint-order: fill; stroke-width: 9px;" d="M 493.423 241.948 L 493.423 266.356"/>
  <rect x="535.359" y="144.2" width="9.758" height="207.239" style="stroke: rgb(0, 0, 0);"/>
</svg>